<?xml version="1.0" ?><svg height="72" id="svg1025" version="1.1" viewBox="0 0 19.05 19.050001" width="72" xmlns="http://www.w3.org/2000/svg" xmlns:inkscape="http://www.inkscape.org/namespaces/inkscape" xmlns:sodipodi="http://sodipodi.sourceforge.net/DTD/sodipodi-0.dtd" xmlns:svg="http://www.w3.org/2000/svg"><defs id="defs1022"/><g id="layer1" style="opacity:1"><g id="g8351" style="stroke-width:0.349952" transform="matrix(2.8571247,0,0,2.8579415,-490.15954,-105.40537)"><path d="m 172.7962,38.651348 a 0.5183621,0.5183621 0 0 1 -0.51837,-0.518365 0.5183621,0.5183621 0 0 1 0.51836,-0.518367 0.5183621,0.5183621 0 0 1 0.51836,0.518359 0.5183621,0.5183621 0 0 1 -0.51835,0.518373 z" id="path17490-0" style="opacity:1;fill:#808080;fill-rule:evenodd;stroke:#808080;stroke-width:0.174976;stroke-linecap:round;stroke-linejoin:round;stroke-miterlimit:4;stroke-dasharray:none;paint-order:markers fill stroke;stop-color:#000000"/><path d="m 172.79619,42.814157 a 0.5183621,0.5183621 0 0 1 -0.51835,-0.518343 0.5183621,0.5183621 0 0 1 0.51834,-0.518387 0.5183621,0.5183621 0 0 1 0.51837,0.518372 0.5183621,0.5183621 0 0 1 -0.51836,0.518358 z" id="path17492-0" style="opacity:1;fill:#808080;fill-rule:evenodd;stroke:#808080;stroke-width:0.174976;stroke-linecap:round;stroke-linejoin:round;stroke-miterlimit:4;stroke-dasharray:none;paint-order:markers fill stroke;stop-color:#000000"/><path d="m 172.79615,40.732733 c -0.2862,0 -0.5183,-0.2321 -0.5183,-0.5184 0,-0.2862 0.2321,-0.5183 0.5183,-0.5183 0.2863,0 0.5184,0.2321 0.5184,0.5183 0,0.2863 -0.2321,0.5184 -0.5184,0.5184 z" id="path17494-3" style="opacity:1;fill:#808080;fill-rule:evenodd;stroke:#808080;stroke-width:0.174976;stroke-linecap:round;stroke-linejoin:round;stroke-miterlimit:4;stroke-dasharray:none;paint-order:markers fill stroke;stop-color:#000000"/><path d="m 176.98522,38.651348 a 0.5183621,0.5183621 0 0 1 -0.51837,-0.518365 0.5183621,0.5183621 0 0 1 0.51836,-0.518367 0.5183621,0.5183621 0 0 1 0.51836,0.518359 0.5183621,0.5183621 0 0 1 -0.51835,0.518373 z" id="path37298" style="opacity:1;fill:#808080;fill-rule:evenodd;stroke:#808080;stroke-width:0.174976;stroke-linecap:round;stroke-linejoin:round;stroke-miterlimit:4;stroke-dasharray:none;paint-order:markers fill stroke;stop-color:#000000"/><path d="m 176.98519,42.814157 a 0.5183621,0.5183621 0 0 1 -0.51835,-0.518343 0.5183621,0.5183621 0 0 1 0.51834,-0.518387 0.5183621,0.5183621 0 0 1 0.51837,0.518372 0.5183621,0.5183621 0 0 1 -0.51836,0.518358 z" id="path37300" style="opacity:1;fill:#808080;fill-rule:evenodd;stroke:#808080;stroke-width:0.174976;stroke-linecap:round;stroke-linejoin:round;stroke-miterlimit:4;stroke-dasharray:none;paint-order:markers fill stroke;stop-color:#000000"/><path d="m 176.98515,40.732732 c -0.2862,0 -0.5183,-0.2321 -0.5183,-0.5184 0,-0.2862 0.2321,-0.5183 0.5183,-0.5183 0.2863,0 0.5184,0.2321 0.5184,0.5183 0,0.2863 -0.2321,0.5184 -0.5184,0.5184 z" id="path37302" style="opacity:1;fill:#808080;fill-rule:evenodd;stroke:#808080;stroke-width:0.174976;stroke-linecap:round;stroke-linejoin:round;stroke-miterlimit:4;stroke-dasharray:none;paint-order:markers fill stroke;stop-color:#000000"/><path d="m 174.89071,38.651348 a 0.5183621,0.5183621 0 0 1 -0.51837,-0.518365 0.5183621,0.5183621 0 0 1 0.51836,-0.518367 0.5183621,0.5183621 0 0 1 0.51836,0.518359 0.5183621,0.5183621 0 0 1 -0.51835,0.518373 z" id="path37637" style="opacity:1;fill:#808080;fill-rule:evenodd;stroke:#808080;stroke-width:0.174976;stroke-linecap:round;stroke-linejoin:round;stroke-miterlimit:4;stroke-dasharray:none;paint-order:markers fill stroke;stop-color:#000000"/><path d="m 174.89071,40.732748 a 0.5183621,0.5183621 0 0 1 -0.51837,-0.518365 0.5183621,0.5183621 0 0 1 0.51836,-0.518367 0.5183621,0.5183621 0 0 1 0.51836,0.518359 0.5183621,0.5183621 0 0 1 -0.51835,0.518373 z" id="path37776" style="opacity:1;fill:#808080;fill-rule:evenodd;stroke:#808080;stroke-width:0.174976;stroke-linecap:round;stroke-linejoin:round;stroke-miterlimit:4;stroke-dasharray:none;paint-order:markers fill stroke;stop-color:#000000"/><path d="m 174.89071,42.814158 a 0.5183621,0.5183621 0 0 1 -0.51837,-0.518365 0.5183621,0.5183621 0 0 1 0.51836,-0.518367 0.5183621,0.5183621 0 0 1 0.51836,0.518359 0.5183621,0.5183621 0 0 1 -0.51835,0.518373 z" id="path37778" style="opacity:1;fill:#808080;fill-rule:evenodd;stroke:#808080;stroke-width:0.174976;stroke-linecap:round;stroke-linejoin:round;stroke-miterlimit:4;stroke-dasharray:none;paint-order:markers fill stroke;stop-color:#000000"/></g></g></svg>